<svg xmlns="http://www.w3.org/2000/svg" height="16" width="16" enable-background="new">
<metadata><rdf:RDF><cc:Work rdf:about=''>
    <dc:format>image/svg+xml</dc:format>
    <dc:type rdf:resource='http://purl.org/dc/dcmitype/StillImage'/>
    <dc:title>Gnome Symbolic Icon Theme</dc:title>
    <dc:source>https://github.com/GNOME/gnome-icon-theme-symbolic/blob/master/gnome/scalable/devices/drive-harddisk-symbolic.svg</dc:source>
    <cc:license rdf:resource="http://creativecommons.org/licenses/by-sa/3.0/"/>
</cc:Work></rdf:RDF></metadata>
<g fill="#bebebe"><path style="text-indent:0;text-transform:none" d="M3.176-.01l.013.01C1.99 0 1 .99 1 2.19v11.624c0 1.2.986 2.188 2.188 2.188h6.167A4.8 4.8 0 0 1 7.643 14H3.189c-.14-.01-.199-.07-.199-.2V2.177c0-.12.06-.182.19-.182L3.19 2h9.624c.124 0 .188.057.188.188v5.119a4.8 4.8 0 0 1 1.998.95V2.19c-.01-1.21-1-2.2-2.2-2.2H3.177z" color="#bebebe"/><path d="M7.84 3c-.266.01-.545.059-.813.125a3.99 3.99 0 0 0-2.906 4.844c.394 1.59 1.693 2.684 3.21 2.94a4.8 4.8 0 0 1 .911-1.888l-.137-1.039A.388.388 0 0 1 7.996 8a1 1 0 1 1 1-1 .793.793 0 0 1-.072.324l.84.432a4.8 4.8 0 0 1 2.191-.555c.024-.39.012-.783-.084-1.17A3.985 3.985 0 0 0 7.84 3z" color="#000"/><path d="M8.66 8l.145.426a4.8 4.8 0 0 1 .14-.125L8.66 8z" color="#000"/><path d="M12 8a4 4 0 1 0 0 8 4 4 0 0 0 0-8zm-1.975 1.8H11.4v4.3h-1.375zm2.575 0h1.375v4.3H12.6z" paint-order="stroke markers fill" filter="url(#a)"/></g>
</svg>