<svg xmlns="http://www.w3.org/2000/svg" height="16" width="16"><g fill="#bebebe"><path style="block-progression:tb;text-indent:0;text-transform:none" d="M3.19 0C1.99 0 1 .99 1 2.19v11.625c0 1.2.986 2.188 2.187 2.188h9.625A2.197 2.197 0 0 0 15 13.814V2.19c-.01-1.21-1-2.2-2.2-2.2H3.175zm0 2h9.625c.124 0 .187.057.187.188v11.624c0 .131-.063.188-.187.188H3.19c-.14-.01-.2-.07-.2-.2V2.175c0-.12.06-.18.19-.18z" color="#bebebe"/><path d="M7.84 3c-.266.01-.544.059-.812.125A3.99 3.99 0 0 0 4.12 7.969a3.985 3.985 0 0 0 4.374 2.994l-.39-2.98A.39.39 0 0 1 7.997 8a1 1 0 1 1 1-1 .797.797 0 0 1-.072.325l2.7 1.387c.386-.83.47-1.78.247-2.68A3.985 3.985 0 0 0 7.841 3z" color="#000"/><path d="M8.66 8L10 12c.734 2.056 3 .384 1.497-1z" color="#000"/></g></svg>