<svg xmlns="http://www.w3.org/2000/svg" xmlns:dc="http://purl.org/dc/elements/1.1/" xmlns:cc="http://creativecommons.org/ns#" xmlns:rdf="http://www.w3.org/1999/02/22-rdf-syntax-ns#" height="16" width="16" enable-background="new">
<metadata><rdf:RDF><cc:Work rdf:about=''>
    <dc:format>image/svg+xml</dc:format>
    <dc:type rdf:resource='http://purl.org/dc/dcmitype/StillImage'/>
    <dc:title>Gnome Symbolic Icon Theme</dc:title>
    <dc:source>https://github.com/GNOME/gnome-icon-theme-symbolic/blob/master/gnome/scalable/devices/drive-harddisk-symbolic.svg</dc:source>
    <cc:license rdf:resource="http://creativecommons.org/licenses/by-sa/3.0/"/>
</cc:Work></rdf:RDF></metadata>
<g fill="#bebebe"><path style="block-progression:tb;text-indent:0;text-transform:none" d="M3.19 0C1.99 0 1 .99 1 2.19v11.625c0 1.2.986 2.188 2.187 2.188h9.625A2.197 2.197 0 0 0 15 13.814V2.19c-.01-1.21-1-2.2-2.2-2.2H3.175zm0 2h9.625c.124 0 .187.057.187.188v11.624c0 .131-.063.188-.187.188H3.19c-.14-.01-.2-.07-.2-.2V2.175c0-.12.06-.18.19-.18z"/><path d="M7.752 3a3.997 3.997 0 0 0-3.436 2.44l2.776 1.154a.398.398 0 0 1 .039-.104 1.001 1.001 0 1 1 1.732 1c-.035.06-.088.1-.133.15l2.08 2.184c.285-.282.537-.604.73-.97.122-.236.221-.5.298-.766a3.991 3.991 0 0 0-2.742-4.94A3.97 3.97 0 0 0 7.752 3zm-.5 4.63l-2.55 1.645a4.056 4.056 0 0 0 2.196 1.555 3.963 3.963 0 0 0 2.348-.053L8.287 7.94a.987.987 0 0 1-.789-.084.8.8 0 0 1-.246-.224z"/><path d="M8.66 8L10 12c.734 2.056 3 .384 1.497-1z"/></g>
</svg>