<svg xmlns="http://www.w3.org/2000/svg" height="16" width="16"><g fill="#bebebe"><path style="block-progression:tb;text-indent:0;text-transform:none" d="M3.19 0C1.99 0 1 .99 1 2.19v11.625c0 1.2.986 2.188 2.187 2.188h9.625A2.197 2.197 0 0 0 15 13.814V2.19c-.01-1.21-1-2.2-2.2-2.2H3.175zm0 2h9.625c.124 0 .187.057.187.188v11.624c0 .131-.063.188-.187.188H3.19c-.14-.01-.2-.07-.2-.2V2.175c0-.12.06-.18.19-.18z" color="#bebebe"/><path d="M7.67 2.996a4.053 4.053 0 0 0-2.443 1.127 3.984 3.984 0 0 0-.612 5.006h.002c.142.224.322.444.514.642 1.099 1.142 2.705 1.469 4.115 1.004l-.96-2.843a.983.983 0 0 1-1.15-.438.999.999 0 0 1 .366-1.365.801.801 0 0 1 .318-.1l-.15-3.033zm3.516 1.586L8.799 6.408a.39.39 0 0 1 .07.086.99.99 0 0 1-.129 1.158l2.074 2.174a3.982 3.982 0 0 0 .372-5.244z" color="#000"/><path d="M8.66 8L10 12c.734 2.056 3 .384 1.497-1z" color="#000"/></g></svg>