<svg xmlns="http://www.w3.org/2000/svg" height="16" width="16">
<metadata><rdf:RDF><cc:Work rdf:about=''>
    <dc:format>image/svg+xml</dc:format>
    <dc:type rdf:resource='http://purl.org/dc/dcmitype/StillImage'/>
    <dc:title>Gnome Symbolic Icon Theme</dc:title>
    <dc:source>https://github.com/GNOME/gnome-icon-theme-symbolic/blob/master/gnome/scalable/devices/drive-harddisk-symbolic.svg</dc:source>
    <cc:license rdf:resource="http://creativecommons.org/licenses/by-sa/3.0/"/>
</cc:Work></rdf:RDF></metadata>
<g fill="#bebebe"><path style="text-indent:0;text-transform:none" d="M3.176-.01l.013.01C1.99 0 1 .99 1 2.19v11.624c0 1.2.986 2.188 2.188 2.188h6.167A4.8 4.8 0 0 1 7.643 14H3.189c-.14-.01-.199-.07-.199-.2V2.177c0-.12.06-.182.19-.182L3.19 2h9.624c.124 0 .188.057.188.188v5.119a4.8 4.8 0 0 1 1.998.95V2.19c-.01-1.21-1-2.2-2.2-2.2H3.177z" color="#bebebe"/><path d="M7.84 3c-.266.01-.545.059-.813.125a3.99 3.99 0 0 0-2.906 4.844c.394 1.59 1.693 2.684 3.21 2.94a4.8 4.8 0 0 1 .911-1.888l-.137-1.039A.388.388 0 0 1 7.996 8a1 1 0 1 1 1-1 .793.793 0 0 1-.072.324l.84.432a4.8 4.8 0 0 1 2.191-.555c.024-.39.012-.783-.084-1.17A3.985 3.985 0 0 0 7.84 3z" color="#000"/><path d="M8.66 8l.145.426a4.8 4.8 0 0 1 .14-.125L8.66 8z" color="#000"/><path d="M12 8c-5.333 0-5.333 8 0 8s5.333-8 0-8zm-.096 1.49v.002c.825-.046 1.556.588 1.602 1.412 0 .704-.19.965-.8 1.428a1.336 1.336 0 0 0-.188.156c-.026.03-.016.016-.016.016a.516.516 0 0 1-.502.502.516.516 0 0 1-.502-.502c0-.252.112-.475.234-.629.123-.154.248-.258.362-.344.102-.08.232-.193.345-.33a.363.363 0 0 0 .063-.22v-.016a.496.496 0 0 0-.533-.47c-.283.015-.487.218-.471.501h-1.006c-.046-.825.587-1.46 1.412-1.506zM12 13.508a.502.502 0 1 1 0 1.003.502.502 0 0 1 0-1.003z"/></g>
</svg>